<svg width="100" height="100" viewBox="0 0 100 100" fill="none" xmlns="http://www.w3.org/2000/svg">
<rect width="100" height="100" rx="50" fill="#1D1D1D"/>
<path d="M52.7488 78.9728C46.3716 78.9728 40.832 77.7568 36.1302 75.3248C31.4823 72.8388 27.8614 69.3799 25.2672 64.9483C22.7271 60.5166 21.4571 55.3284 21.4571 49.3835C21.4571 43.4386 22.7271 38.2773 25.2672 33.8997C27.8614 29.4681 31.4823 26.0363 36.1302 23.6043C40.832 21.1182 46.3716 19.8752 52.7488 19.8752C56.64 19.8752 60.207 20.3886 63.4496 21.4155C66.7463 22.3883 69.4756 23.7934 71.6374 25.6309L66.5302 39.3312C64.0982 37.7099 61.9094 36.602 59.9638 36.0075C58.0182 35.3589 55.8294 35.0347 53.3974 35.0347C49.0198 35.0347 45.642 36.2777 43.264 38.7637C40.9401 41.1957 39.7782 44.7356 39.7782 49.3835C39.7782 54.0853 40.9401 57.6793 43.264 60.1653C45.642 62.5973 49.0198 63.8133 53.3974 63.8133C55.8294 63.8133 58.0182 63.5161 59.9638 62.9216C61.9094 62.2731 64.0982 61.1381 66.5302 59.5168L71.6374 73.2171C69.4756 75.0546 66.7463 76.4868 63.4496 77.5136C60.207 78.4864 56.64 78.9728 52.7488 78.9728Z" fill="#46CC6B"/>
</svg>
