<svg width="25" height="25" viewBox="0 0 25 25" fill="none" xmlns="http://www.w3.org/2000/svg">
<circle cx="12.5" cy="12.5" r="12.5" fill="#1D1D1D"/>
<path d="M17.2641 7.72617C16.6442 7.10331 15.9059 6.60949 15.0923 6.27351C14.2787 5.93753 13.4061 5.7661 12.5253 5.76921C8.83458 5.76921 5.8267 8.76271 5.82332 12.4377C5.82332 13.6147 6.13264 14.7598 6.71664 15.7736L5.76923 19.2307L9.32223 18.3035C10.3051 18.836 11.4063 19.1152 12.5253 19.1154H12.5287C16.2203 19.1154 19.2274 16.1219 19.2308 12.4436C19.2316 11.5669 19.0582 10.6988 18.7205 9.88916C18.3828 9.07953 17.8884 8.34442 17.2641 7.72617ZM12.5253 17.9864C11.5272 17.9867 10.5474 17.7193 9.68903 17.2123L9.48619 17.0912L7.37839 17.6414L7.94126 15.5944L7.80942 15.3832C7.25145 14.5001 6.95636 13.4776 6.95835 12.4343C6.95835 9.38362 9.45746 6.89492 12.5287 6.89492C13.2604 6.89362 13.9851 7.0365 14.6611 7.31534C15.337 7.59417 15.9508 8.00344 16.4671 8.51956C16.9852 9.03366 17.396 9.64479 17.6756 10.3177C17.9553 10.9906 18.0984 11.712 18.0966 12.4402C18.0932 15.5019 15.5941 17.9864 12.5253 17.9864ZM15.5806 13.8352C15.4141 13.7519 14.5917 13.3489 14.4371 13.2917C14.2833 13.237 14.1709 13.2084 14.061 13.375C13.9486 13.5407 13.6274 13.9185 13.5311 14.027C13.4347 14.1389 13.335 14.1515 13.1677 14.0691C13.0012 13.9849 12.4611 13.8099 11.8222 13.2403C11.3235 12.7986 10.9897 12.2518 10.89 12.086C10.7936 11.9194 10.8807 11.8302 10.9644 11.747C11.0379 11.6729 11.1309 11.5518 11.2145 11.4558C11.299 11.3599 11.3269 11.2893 11.3819 11.1782C11.4368 11.0655 11.4106 10.9696 11.3692 10.8863C11.3269 10.803 10.9931 9.98097 10.852 9.64948C10.7167 9.3222 10.579 9.36763 10.4759 9.36343C10.3795 9.35754 10.2671 9.35754 10.1547 9.35754C10.0698 9.35964 9.98629 9.37918 9.90935 9.41494C9.83242 9.4507 9.76374 9.50191 9.70762 9.56535C9.5538 9.73193 9.12362 10.1349 9.12362 10.9569C9.12362 11.7789 9.72368 12.5689 9.80819 12.6808C9.89102 12.7927 10.9863 14.4746 12.6673 15.1981C13.0646 15.3706 13.3773 15.4724 13.6215 15.5498C14.023 15.6777 14.3855 15.6584 14.6746 15.6171C14.9957 15.5683 15.6642 15.2133 15.8054 14.8237C15.944 14.4334 15.944 14.1002 15.9017 14.0304C15.8603 13.9597 15.7479 13.9185 15.5806 13.8352Z" fill="#46CC6B"/>
</svg>
